<?xml version="1.0" encoding="UTF-8"?>
<!--Generator: Apple Native CoreSVG 232.5-->
<!DOCTYPE svg
PUBLIC "-//W3C//DTD SVG 1.1//EN"
       "http://www.w3.org/Graphics/SVG/1.1/DTD/svg11.dtd">
<svg version="1.1" xmlns="http://www.w3.org/2000/svg" xmlns:xlink="http://www.w3.org/1999/xlink" width="21.5189" height="21.5647">
 <g>
  <rect height="21.5647" opacity="0" width="21.5189" x="0" y="0"/>
  <path d="M21.5189 5.77405L21.5189 13.2563C21.5189 16.1157 19.9516 17.7184 17.0466 17.7184L10.4472 17.7184L6.91654 20.9409C6.46071 21.3636 6.18908 21.5647 5.80148 21.5647C5.25018 21.5647 4.92258 21.1667 4.92258 20.5656L4.92258 17.7184L4.47238 17.7184C1.56737 17.7184 0 16.1199 0 13.2563L0 5.77405C0 2.91044 1.56737 1.30167 4.47238 1.30167L17.0466 1.30167C19.9516 1.30167 21.5189 2.91466 21.5189 5.77405ZM12.6242 13.6353C12.6564 13.849 12.7894 14.0433 12.9682 14.1631L14.5399 15.2103C14.7347 15.3411 14.9459 15.3429 15.0973 15.1916L16.117 14.1715C16.2658 14.0227 16.2532 13.8053 16.1276 13.6089L15.0882 12.0483C14.9635 11.8613 14.7692 11.7366 14.5614 11.7041L14.1527 11.6411L12.2841 9.77234C12.4371 9.61053 12.5995 9.44395 12.7717 9.27269C13.8251 9.70651 15.0625 9.51615 15.8907 8.68426C16.8481 7.73356 16.9749 6.19907 16.1774 5.01392L14.8106 6.38221C14.6998 6.49017 14.5779 6.49405 14.4634 6.3854L13.9761 5.89647C13.8565 5.7735 13.8519 5.65209 13.9599 5.5416L15.3279 4.17447C14.1498 3.37656 12.6217 3.50346 11.6676 4.4609C11.0137 5.11215 10.7563 6.01405 10.8866 6.87985L8.49999 4.48651C7.71871 3.70523 6.88231 3.69658 6.11995 4.45557L5.37576 5.20229C4.61948 5.96145 4.62626 6.78958 5.4067 7.57307L7.96259 10.1338C7.97402 10.1265 7.98549 10.1192 7.99703 10.1119C7.01814 10.7415 6.31792 11.0508 5.76419 11.599C4.90574 12.4519 4.87956 13.674 5.77379 14.5747C6.67237 15.4668 7.89744 15.4406 8.74391 14.5818C9.39598 13.9254 9.73142 13.0476 10.6401 11.7616L10.8297 11.4989L12.5606 13.2298ZM11.7491 8.59575C11.818 8.66807 11.8944 8.73636 11.9707 8.79406C8.97319 11.89 9.12472 12.8439 8.06689 13.9046C7.60122 14.3674 6.96472 14.404 6.45167 13.8972C5.94233 13.3813 5.98147 12.7476 6.44428 12.2817C7.50834 11.2275 8.4597 11.3765 11.5523 8.37561C11.6159 8.45448 11.6805 8.52713 11.7491 8.59575ZM13.7347 12.583L14.2819 12.6739L15.1229 13.799L14.7197 14.2053L13.6033 13.3559L13.5025 12.8149L11.4262 10.7381C11.4914 10.6584 11.5607 10.5764 11.6383 10.4897ZM6.69143 13.1134C6.69143 13.4183 6.94164 13.6648 7.24319 13.6648C7.54997 13.6648 7.79732 13.4183 7.79732 13.1134C7.79732 12.8088 7.54997 12.562 7.24319 12.562C6.94164 12.562 6.69143 12.8088 6.69143 13.1134ZM11.1099 11.1295C11.1167 11.1207 11.1238 11.1116 11.1319 11.1019ZM11.7973 10.3053C11.824 10.2737 11.8535 10.2404 11.8857 10.2058ZM8.41431 9.83536L8.44751 9.81258C8.43594 9.82085 8.4248 9.82853 8.41431 9.83536ZM7.76897 5.12649L10.6399 8.00168C9.93513 8.67898 9.3194 9.18264 8.77707 9.57802L6.05225 6.84912C5.7221 6.51897 5.72595 6.2253 6.03311 5.91191L6.8289 5.10923C7.13859 4.79617 7.4444 4.80192 7.76897 5.12649ZM13.8077 4.59769L13.2464 5.16262C12.8808 5.52488 12.8953 6.00463 13.2746 6.38173L13.9811 7.07611C14.3518 7.44763 14.8324 7.4554 15.1854 7.10579L15.7512 6.53327C15.8073 7.08338 15.6294 7.63117 15.2303 8.02692C14.4768 8.7831 13.2169 8.74129 12.4098 7.93873C11.6039 7.13468 11.5676 5.87392 12.3272 5.12078C12.7202 4.72808 13.2677 4.54759 13.8077 4.59769ZM6.5671 6.2752C6.45633 6.38511 6.4523 6.56261 6.56204 6.6715L8.2696 8.37487C8.37596 8.48377 8.55144 8.47837 8.6578 8.37707C8.76333 8.27357 8.76637 8.10179 8.66 7.98952L6.94737 6.27773C6.84757 6.17507 6.67379 6.1761 6.5671 6.2752ZM7.21109 5.63795C7.09965 5.74178 7.10302 5.91862 7.20602 6.02752L8.90685 7.73761C9.01321 7.84988 9.19459 7.83775 9.29472 7.74015C9.40699 7.62925 9.40952 7.45527 9.30062 7.34637L7.59136 5.64048C7.48417 5.53327 7.31661 5.53665 7.21109 5.63795ZM11.0758 7.57462L11.0569 7.52727C11.0384 7.4798 11.0212 7.43196 11.0054 7.38378ZM10.9991 7.36419C10.9803 7.30757 10.9637 7.25047 10.9493 7.19297ZM10.9398 7.15615C10.9283 7.10939 10.9181 7.0624 10.9094 7.01521Z" fill="#ffffff" fill-opacity="0.85"/>
 </g>
</svg>
