<?xml version="1.0" encoding="UTF-8"?>
<!--Generator: Apple Native CoreSVG 232.5-->
<!DOCTYPE svg
PUBLIC "-//W3C//DTD SVG 1.1//EN"
       "http://www.w3.org/Graphics/SVG/1.1/DTD/svg11.dtd">
<svg version="1.1" xmlns="http://www.w3.org/2000/svg" xmlns:xlink="http://www.w3.org/1999/xlink" width="19.9197" height="19.9218">
 <g>
  <rect height="19.9218" opacity="0" width="19.9197" x="0" y="0"/>
  <path d="M9.95469 19.9094C15.3993 19.9094 19.9197 15.3993 19.9197 9.95469C19.9197 4.51006 15.389 0 9.94434 0C4.50795 0 4.44089e-16 4.51006 4.44089e-16 9.95469C4.44089e-16 15.3993 4.5183 19.9094 9.95469 19.9094ZM9.95469 18.2559C5.35751 18.2559 1.67209 14.5622 1.67209 9.95469C1.67209 5.34716 5.34716 1.6535 9.94434 1.6535C14.5519 1.6535 18.2559 5.34716 18.2559 9.95469C18.2559 14.5622 14.5622 18.2559 9.95469 18.2559Z" fill="#ffffff" fill-opacity="0.85"/>
  <path d="M7.9443 15.1895C7.09783 16.0483 5.87276 16.0745 4.97418 15.1824C4.07995 14.2817 4.10613 13.0596 4.96458 12.2067C5.54201 11.6351 6.27873 11.3232 7.32374 10.638C7.26907 10.6738 7.21556 10.7081 7.16298 10.7415L4.60709 8.18077C3.82665 7.39728 3.81986 6.56915 4.57615 5.80999L5.32034 5.06327C6.0827 4.30428 6.9191 4.31293 7.70038 5.09421L10.087 7.48755C9.9567 6.62175 10.2141 5.71985 10.868 5.0686C11.8221 4.11116 13.3502 3.98426 14.5283 4.78217L13.1603 6.1493C13.0523 6.25979 13.0569 6.3812 13.1765 6.50417L13.6637 6.9931C13.7783 7.10175 13.9002 7.09787 14.011 6.98991L15.3778 5.62162C16.1753 6.80677 16.0485 8.34126 15.0911 9.29196C14.2629 10.1238 13.0255 10.3142 11.9721 9.88039C11.7966 10.0549 11.6313 10.2246 11.4756 10.3894C11.4784 10.3863 11.4814 10.3831 11.4844 10.38L13.3531 12.2488L13.7618 12.3118C13.9695 12.3443 14.1639 12.469 14.2886 12.656L15.328 14.2166C15.4536 14.413 15.4662 14.6304 15.3174 14.7792L14.2977 15.7993C14.1463 15.9506 13.9351 15.9488 13.7403 15.818L12.1686 14.7708C11.9898 14.651 11.8568 14.4567 11.8246 14.243L11.761 13.8375L10.0301 12.1066C8.97513 13.5373 8.63984 14.4893 7.9443 15.1895ZM5.64467 12.8894C5.18186 13.3553 5.14272 13.989 5.65206 14.5049C6.16511 15.0117 6.80161 14.9751 7.26728 14.5123C8.3251 13.4516 8.17358 12.4977 11.1711 9.40176C11.0948 9.34406 11.0184 9.27577 10.9495 9.20345C10.8809 9.13483 10.8163 9.06218 10.7527 8.98331C7.66009 11.9842 6.70873 11.8352 5.64467 12.8894ZM10.6266 11.3458L12.7029 13.4226L12.8037 13.9635L13.9201 14.813L14.3233 14.4067L13.4823 13.2816L12.9351 13.1907L10.8387 11.0974C10.8387 11.0974 10.8387 11.0974 10.8387 11.0974C10.7611 11.1841 10.6918 11.2661 10.6266 11.3458ZM6.99771 13.7211C6.99771 14.026 6.75036 14.2725 6.44358 14.2725C6.14203 14.2725 5.89182 14.026 5.89182 13.7211C5.89182 13.4165 6.14203 13.1697 6.44358 13.1697C6.75036 13.1697 6.99771 13.4165 6.99771 13.7211ZM10.3103 11.7372L10.3323 11.7096C10.3242 11.7193 10.3171 11.7284 10.3103 11.7372ZM10.9977 10.913L11.0861 10.8135C11.0539 10.8481 11.0243 10.8814 10.9977 10.913ZM7.6147 10.4431C7.62519 10.4362 7.63634 10.4285 7.6479 10.4203ZM6.02929 5.71693L5.2335 6.51961C4.92634 6.833 4.92249 7.12667 5.25264 7.45681L7.97746 10.1857C7.97745 10.1857 7.97745 10.1857 7.97745 10.1857C8.51979 9.79034 9.13552 9.28668 9.84026 8.60938L6.96936 5.73419C6.64479 5.40962 6.33898 5.40387 6.02929 5.71693ZM11.5276 5.72848C10.768 6.48162 10.8043 7.74238 11.6102 8.54643C12.4173 9.34899 13.6772 9.39079 14.4307 8.63462C14.8298 8.23887 15.0077 7.69108 14.9516 7.14097L14.3858 7.71349C14.0328 8.0631 13.5522 8.05533 13.1815 7.68381L12.475 6.98943C12.0957 6.61233 12.0812 6.13258 12.4468 5.77032L13.0081 5.20539C12.4681 5.15529 11.9206 5.33578 11.5276 5.72848ZM6.14776 6.88543L7.86039 8.59722C7.96676 8.70949 7.96372 8.88127 7.85819 8.98477C7.75183 9.08607 7.57635 9.09146 7.46999 8.98257L5.76243 7.2792C5.65269 7.17031 5.65672 6.99281 5.76749 6.8829C5.87418 6.7838 6.04796 6.78277 6.14776 6.88543ZM6.79175 6.24818L8.50101 7.95407C8.60991 8.06297 8.60738 8.23695 8.49511 8.34785C8.39498 8.44545 8.2136 8.45758 8.10724 8.34531L6.40641 6.63522C6.30341 6.52632 6.30004 6.34948 6.41148 6.24565C6.517 6.14435 6.68456 6.14097 6.79175 6.24818ZM10.2762 8.18232L10.2058 7.99148C10.2268 8.05572 10.2504 8.11935 10.2762 8.18232ZM10.1994 7.97189L10.1496 7.80067C10.1641 7.85817 10.1807 7.91527 10.1994 7.97189ZM10.1402 7.76385L10.1098 7.62291C10.1184 7.6701 10.1287 7.71709 10.1402 7.76385Z" fill="#ffffff" fill-opacity="0.85"/>
 </g>
</svg>
