<?xml version="1.0" encoding="UTF-8"?>
<!--Generator: Apple Native CoreSVG 232.5-->
<!DOCTYPE svg
PUBLIC "-//W3C//DTD SVG 1.1//EN"
       "http://www.w3.org/Graphics/SVG/1.1/DTD/svg11.dtd">
<svg version="1.1" xmlns="http://www.w3.org/2000/svg" xmlns:xlink="http://www.w3.org/1999/xlink" width="23.1984" height="23.5688">
 <g>
  <rect height="23.5688" opacity="0" width="23.1984" x="0" y="0"/>
  <path d="M18.5146 17.0881L19.3957 17.217C19.7359 17.2668 20.0449 17.4743 20.2524 17.7854L22.3067 20.8299C22.4934 21.1306 22.5245 21.4418 22.3086 21.6576L20.5638 23.4046C20.3479 23.6204 20.0493 23.6246 19.7421 23.4109L16.6812 21.3504C16.3844 21.147 16.1626 20.838 16.1149 20.4874L15.9819 19.6105L11.724 15.3526C11.9851 15.0151 12.2715 14.6597 12.5883 14.2839L17.3415 19.0448L17.5534 20.1334L20.0142 22.006L20.9039 21.108L19.0416 18.6347L17.9406 18.4478L13.1334 13.6465C13.4168 13.3204 13.7228 12.9795 14.0544 12.6223ZM6.47559 2.12638L12.308 7.97638C12.3629 8.13088 12.4267 8.28299 12.4972 8.43273C12.2134 8.71306 11.9374 8.9805 11.6717 9.23137L5.44352 3.00319C4.73938 2.29904 3.97213 2.28466 3.27603 2.99113L1.90152 4.38232C1.20539 5.09089 1.19696 5.83532 1.90936 6.5477L7.85049 12.4888C7.45489 12.7828 7.08391 13.0431 6.73407 13.277L1.02432 7.55695C-0.336746 6.18764-0.336546 4.72822 0.995782 3.39378L2.29171 2.09785C3.64051 0.759398 5.10418 0.754969 6.47559 2.12638ZM3.66794 5.46652L7.32191 9.11014C7.46301 9.26157 7.45475 9.48357 7.32402 9.62254C7.18293 9.76365 6.94848 9.76576 6.80739 9.62465L3.15343 5.99138C3.00199 5.8503 3.01655 5.6241 3.15343 5.46652C3.29663 5.32331 3.54143 5.3379 3.66794 5.46652ZM4.8872 4.26796L8.53081 7.90123C8.67192 8.04231 8.67192 8.2622 8.52047 8.42608C8.39185 8.55473 8.14704 8.57753 8.00596 8.42608L4.37269 4.77213C4.24195 4.63104 4.23159 4.40904 4.37269 4.26796C4.50343 4.12688 4.73577 4.11651 4.8872 4.26796Z" fill="#007aff"/>
  <path d="M1.52045 22.2505C3.22277 23.9383 5.50423 23.959 7.16093 22.2733C9.26262 20.1509 8.93582 17.7811 15.3403 11.2737C17.4268 12.2622 19.9579 11.9299 21.6273 10.2481C23.3959 8.50016 23.6909 5.72509 22.3861 3.4772L19.7394 6.1384C19.475 6.40068 19.1321 6.41928 18.8451 6.14262L17.6615 4.93834C17.3745 4.64099 17.3517 4.30626 17.6139 4.04398L20.2731 1.39521C18.048 0.088208 15.2915 0.383262 13.5332 2.15191C11.8493 3.82549 11.5191 6.35657 12.4972 8.43273C6.00228 14.8476 3.62001 14.5105 1.49763 16.6018C-0.185906 18.2771-0.165205 20.5503 1.52045 22.2505ZM14.5817 9.18922C12.8454 7.44871 12.773 4.7029 14.4368 3.05765C15.3785 2.11805 16.713 1.73176 17.9848 1.93406L16.5758 3.35559C15.8532 4.06779 15.8801 4.97874 16.6191 5.71988L18.0718 7.14976C18.7943 7.88265 19.7156 7.88877 20.4071 7.20765L21.839 5.75504C22.0578 7.05792 21.6715 8.39454 20.7133 9.34239C19.066 10.9959 16.3305 10.9152 14.5817 9.18922ZM2.49038 21.2827C1.37253 20.1502 1.38499 18.6854 2.46548 17.6007C4.82492 15.2661 6.22999 16.263 13.1461 9.49624C13.3102 9.70827 13.4806 9.90784 13.6656 10.0928C13.8528 10.2903 14.0648 10.4732 14.2768 10.627C7.52039 17.5534 8.51725 18.9585 6.17029 21.3076C5.08769 22.3881 3.62072 22.4005 2.49038 21.2827ZM4.30647 20.6977C4.97282 20.6977 5.51669 20.1642 5.51669 19.4936C5.51669 18.8252 4.97282 18.2895 4.30647 18.2895C3.64624 18.2895 3.10027 18.8252 3.10027 19.4936C3.10027 20.1642 3.64624 20.6977 4.30647 20.6977Z" fill="#ffffff" fill-opacity="0.85"/>
 </g>
</svg>
